<?xml version="1.0" encoding="iso-8859-1"?>
<!-- Generator: Adobe Illustrator 19.0.0, SVG Export Plug-In . SVG Version: 6.00 Build 0)  -->
<svg version="1.1" id="Capa_1" xmlns="http://www.w3.org/2000/svg" xmlns:xlink="http://www.w3.org/1999/xlink" x="0px" y="0px"
	 viewBox="0 0 496 496" style="enable-background:new 0 0 496 496;" xml:space="preserve">
<path style="fill:#FFA64D;" d="M149.128,296h4.216c4.336,0,8.568,1.336,12.112,3.816l17.4,12.184H200V168h-64v32H72v32H8v80h64
	h56.696C131,302.824,139.24,296,149.128,296z"/>
<g>
	<path style="fill:#333333;" d="M440,304h-18.84c14.392-11.624,24.224-28.664,26.368-48H448c17.648,0,32-14.352,32-32v-64
		c0-48.52-39.48-88-88-88h-26.336c-21.344,0-40.528,11.864-50.088,30.96l-1.376,2.744l-7,2.8c-21.384,8.552-35.2,28.968-35.2,52V224
		c0,17.648,14.352,32,32,32h0.472c2.152,19.336,11.976,36.376,26.368,48h-30.96c-14.96,0-29.024,5.832-39.6,16.408l-16.448,16.448
		c-2.76,2.752-7.072,3.136-10.248,0.896L208,319.84V160h-80v32H64v32H0v96h120.344c0.84,8.28,5.008,15.936,11.848,20.832
		l83.464,59.616c14.496,10.352,34.328,9.792,48.24-1.312L280,386.24V496h216V360C496,329.128,470.872,304,440,304z M448,240v-32
		c8.824,0,16,7.176,16,16S456.824,240,448,240z M313.144,123.36l12.656-5.056l4.096-8.184C336.712,96.472,350.424,88,365.664,88H392
		c39.704,0,72,32.304,72,72v36.448c-4.728-2.752-10.144-4.448-16-4.448v-16H304v16c-5.856,0-11.272,1.696-16,4.448v-35.952
		C288,144.048,297.864,129.472,313.144,123.36z M288,224c0-8.824,7.176-16,16-16v32C295.176,240,288,232.824,288,224z M320,248v-56
		h112v56c0,30.872-25.128,56-56,56S320,278.872,320,248z M376,320c8.272,0,16.192-1.472,23.6-4.056
		C397.704,327.296,387.88,336,376,336s-21.704-8.704-23.6-20.056C359.808,318.528,367.728,320,376,320z M128,208v48h16v-80h48v128
		h-6.624l-15.336-10.736c-4.912-3.44-10.688-5.264-16.696-5.264h-4.216c-1.752,0-3.456,0.216-5.128,0.52V272h-16v25.192
		c-1.904,2.016-3.464,4.32-4.728,6.808H80v-96H128z M16,240h48v64H16V240z M224.952,387.432l-83.456-59.616
		c-3.44-2.464-5.496-6.464-5.496-10.688c0-7.24,5.888-13.128,13.128-13.128h4.216c2.704,0,5.304,0.824,7.52,2.376l63.544,44.488
		c5.2,3.64,11.384,4.88,17.288,4l5.896,35.36C240.2,393.072,231.64,392.2,224.952,387.432z M277.192,368l-15.08,12.056
		l-5.552-33.312l15.024-15.024c7.552-7.552,17.6-11.72,28.288-11.72h36.92c3.72,18.232,19.872,32,39.192,32s35.48-13.768,39.192-32
		H440c22.056,0,40,17.944,40,40v56h-32v-24h-16v88H296V368H277.192z M448,480v-48h32v48H448z"/>
	<path style="fill:#333333;" d="M376,288c17.648,0,32-14.352,32-32h-16c0,8.824-7.176,16-16,16s-16-7.176-16-16h-16
		C344,273.648,358.352,288,376,288z"/>
	<rect x="400" y="208" style="fill:#333333;" width="16" height="16"/>
	<rect x="336" y="208" style="fill:#333333;" width="16" height="16"/>
	<path style="fill:#333333;" d="M24,144c13.232,0,24-10.768,24-24c0-3.968-1.064-7.664-2.776-10.96l41.184-47.064
		C89.352,63.264,92.584,64,96,64c3.696,0,7.152-0.904,10.28-2.408l32.12,32.12c-1.496,3.136-2.4,6.592-2.4,10.288
		c0,13.232,10.768,24,24,24s24-10.768,24-24c0-3.968-1.064-7.664-2.776-10.96l41.184-47.064C225.352,47.264,228.584,48,232,48
		c13.232,0,24-10.768,24-24S245.232,0,232,0s-24,10.768-24,24c0,3.968,1.064,7.664,2.776,10.96l-41.184,47.064
		C166.648,80.736,163.416,80,160,80c-3.696,0-7.152,0.904-10.28,2.408l-32.12-32.12c1.496-3.136,2.4-6.592,2.4-10.288
		c0-13.232-10.768-24-24-24S72,26.768,72,40c0,3.968,1.064,7.664,2.776,10.96L33.592,98.024C30.648,96.736,27.416,96,24,96
		c-13.232,0-24,10.768-24,24S10.768,144,24,144z M232,16c4.416,0,8,3.592,8,8s-3.584,8-8,8s-8-3.592-8-8S227.584,16,232,16z
		 M168,104c0,4.408-3.584,8-8,8s-8-3.592-8-8s3.584-8,8-8S168,99.592,168,104z M96,32c4.416,0,8,3.592,8,8s-3.584,8-8,8
		s-8-3.592-8-8S91.584,32,96,32z M24,112c4.416,0,8,3.592,8,8c0,4.408-3.584,8-8,8s-8-3.592-8-8S19.584,112,24,112z"/>
	<rect x="32" y="272" style="fill:#333333;" width="16" height="16"/>
	<rect x="96" y="272" style="fill:#333333;" width="16" height="16"/>
	<rect x="96" y="240" style="fill:#333333;" width="16" height="16"/>
	<rect x="160" y="272" style="fill:#333333;" width="16" height="16"/>
	<rect x="160" y="240" style="fill:#333333;" width="16" height="16"/>
	<rect x="160" y="208" style="fill:#333333;" width="16" height="16"/>
</g>
<g>
</g>
<g>
</g>
<g>
</g>
<g>
</g>
<g>
</g>
<g>
</g>
<g>
</g>
<g>
</g>
<g>
</g>
<g>
</g>
<g>
</g>
<g>
</g>
<g>
</g>
<g>
</g>
<g>
</g>
</svg>
