<svg id="Capa_1" enable-background="new 0 0 513 513" height="512" viewBox="0 0 513 513" width="512" xmlns="http://www.w3.org/2000/svg"><g><g><g><path d="m423.025 93.507c0-37.038-53.442-85.507-162.33-85.507-105.548 0-128.26 38.745-128.26 38.745s-31.564 5.845-40.081 32.065c-8.942 27.528 10.907 121.141 16.571 146.524-1.059 1.923-2.11 3.714-3.147 5.354-3.408 5.094-5.407 11.212-5.407 17.801 0 17.709 14.356 32.065 32.065 32.065h8.421c1.487 25.499 10.062 49.049 23.644 68.89v72.861c70.619 50.936 118.635 30.474 136.668 18.68l-.391-.105v-34.713c50.413-11.018 88.179-55.861 88.179-109.58v-161.206c20.733-6.05 34.068-20.143 34.068-41.874z" fill="#fff"/></g><g><path d="m164.5 360.716v104.212h64.13v-19.048c0-10.01 9.063-17.561 18.903-15.722 9.474 1.771 19.23 2.705 29.195 2.705 8.218 0 16.228-.855 24.049-2.256v-21.793z" fill="#f0d7b9"/></g><g><path d="m276.728 432.863c-9.957 0-19.692-.965-29.149-2.758-9.854-1.868-18.949 5.685-18.949 15.714v19.109h72.146v-34.321c-7.821 1.4-15.83 2.256-24.048 2.256z" fill="#fff"/></g><g><path d="m260.695 216.423h-56.114c-8.855 0-16.033 7.178-16.033 16.033v16.033c0 16.427 9.905 30.507 24.049 36.698v-20.665c0-13.282 10.767-24.049 24.049-24.049h40.081v-8.016c.001-8.856-7.177-16.034-16.032-16.034z" fill="#f0d7b9"/></g><g><circle cx="236.646" cy="232.456" fill="#a08cc8" r="16.033"/></g><g><path d="m380.939 216.423h-56.114c-8.855 0-16.033 7.178-16.033 16.033v8.016h88.179v-8.016c.001-8.855-7.177-16.033-16.032-16.033z" fill="#f0d7b9"/></g><g><circle cx="348.874" cy="232.456" fill="#a08cc8" r="16.033"/></g><g><path d="m317.724 454.341-17.507-16.116c-17.987 15.501-53.091 19.36-89.062 7.743-18.423-5.95-34.287-15.06-46.122-25.634l-1.2 1.506-14.388 16.649c-5.302 6.135-5.227 15.35.251 21.327 20.91 22.813 43.8 36.083 59.521 43.25 10.428 4.755 22.715-.05 27.418-10.502l16.044-35.653 18.542 41.203c2.98 6.623 11.197 8.95 17.187 4.843 8.627-5.914 20.552-15.048 30.511-26.194 5.809-6.502 5.221-16.517-1.195-22.422z" fill="#a08cc8"/></g><g><path d="m225.749 449.807c-4.826-1.018-9.695-2.257-14.595-3.839-18.423-5.95-34.287-15.06-46.122-25.634l-1.2 1.506-14.388 16.649c-5.302 6.135-5.227 15.35.251 21.327 19.533 21.311 40.717 34.219 56.248 41.68z" fill="#64648c"/></g><g><path d="m196.565 272.537v-95.226c0-11.911 6.527-22.881 17.095-28.374 17.738-9.22 50.405-20.692 103.149-20.692 22.045 0-32.065-16.033-32.065-16.033h-144.293v104.212h-6.638c-16.747 0-31.702 12.243-33.293 28.915-1.824 19.125 13.166 35.216 31.914 35.216h8.421c4.172 71.511 63.315 128.26 135.872 128.26 9.176 0 18.047-1.222 26.584-3.3-61.049-13.504-106.746-67.866-106.746-132.978z" fill="#f0d7b9"/></g><g><path d="m260.695 8c-105.548 0-128.26 38.745-128.26 38.745s-31.564 5.845-40.081 32.065c-10.377 31.945 16.033 145.629 16.033 145.629l48.098-8.016v-47.368c0-12.754 5.984-24.793 16.304-32.288 16.233-11.792 49.844-26.814 95.149-28.678 73.882 46.354 155.088 39.114 155.088-14.582-.001-37.038-53.443-85.507-162.331-85.507z" fill="#f0d7b9"/></g><g><path d="m156.483 216.423v-47.368c0-12.754 5.984-24.793 16.304-32.288 16.233-11.792 49.844-26.814 95.149-28.678 56.978 35.748 118.272 39.59 143.356 14.863l-14.321-10.741c0-87.111-157.761-108.482-217.324-93.884-4.874 1.502-9.265 3.095-13.242 4.734-.63.325-1.337.629-1.906.971l-.342-.032c-24.624 10.669-31.723 22.745-31.723 22.745s-31.564 5.845-40.081 32.065c-10.377 31.945 16.033 145.629 16.033 145.629z" fill="#a08cc8"/></g><g><path d="m229.381 113.249c-25.591-13.791-62.411-37.253-93.367-70.921-2.567 2.702-3.579 4.417-3.579 4.417s-31.564 5.845-40.081 32.065c-6.801 20.936 2.199 76.977 9.209 113.118 13.097-5.616 32.6-12.332 54.921-14.691v-8.182c0-12.754 5.984-24.793 16.304-32.288 11.182-8.124 30.772-17.686 56.593-23.518z" fill="#64648c"/></g></g><g fill="#283c64"><path d="m400.388 139.76c19.756-8.799 30.637-25.225 30.637-46.253 0-22.573-16.49-46.288-44.112-63.439-22.091-13.717-61.921-30.068-126.218-30.068-92.831 0-124.877 29.773-132.941 39.63-9.133 2.422-34.772 11.35-43.01 36.708-10.382 31.962 11.485 130.875 15.488 148.345-4.937 6.661-7.862 14.897-7.862 23.805 0 22.092 17.973 40.065 40.065 40.065h1.07c2.581 23.338 10.709 44.935 22.995 63.5v66.036l-13.109 15.168c-7.993 9.249-7.818 22.99.407 31.964 21.875 23.867 45.844 37.712 62.1 45.124 3.751 1.71 7.744 2.569 11.756 2.569 3.395 0 6.802-.616 10.083-1.851 7.256-2.732 13.007-8.136 16.194-15.217l8.748-19.441 11.246 24.991c2.399 5.332 6.999 9.294 12.618 10.87 1.749.49 3.533.732 5.307.732 3.913 0 7.773-1.175 11.082-3.443 8.73-5.985 21.361-15.608 31.953-27.462 8.66-9.693 7.879-24.783-1.742-33.639l-14.366-13.224v-22.76c50.785-14.062 88.179-60.685 88.179-115.884v-21.555c5.06-7.612 8.016-16.737 8.016-26.542v-16.032c0-7.104-3.1-13.495-8.016-17.898v-73.394c1.163-.446 2.314-.907 3.432-1.405zm-300.427-58.478c2.829-8.708 9.216-15.794 18.984-21.061 7.811-4.211 14.899-5.601 14.945-5.61 2.349-.435 4.256-1.679 5.413-3.761 1.011-1.496 24.811-34.85 121.392-34.85 105.28 0 154.33 46.25 154.33 77.507 0 .213-.016.417-.019.628-4.4 6.816-10.538 11.219-18.712 13.42-32.394 8.726-82.305-20.001-82.805-20.292-3.814-2.223-8.711-.934-10.938 2.881-2.226 3.816-.937 8.715 2.879 10.941 1.948 1.137 41.74 24.07 77.534 24.07 4.571 0 9.079-.378 13.433-1.22-.814.419-1.653.823-2.519 1.208-16.773 7.47-41.693 7.512-68.371.116-29.66-8.224-59.792-25.171-84.847-47.72-3.283-2.956-8.342-2.689-11.298.595s-2.689 8.343.595 11.298c4.823 4.341 9.788 8.458 14.863 12.362-36.711 4.535-61.595 17.501-76.736 28.5-12.274 8.916-19.602 23.405-19.602 38.761v3.447c-18.202.807-32.693 4.736-41.03 7.587-6.75-36.92-12.907-82.131-7.491-98.807zm14.044 131.65c-1.091-5.026-2.287-10.749-3.518-16.943 6.439-2.37 20.141-6.582 37.996-7.467v19.902h-16.049c-6.642-.001-12.907 1.634-18.429 4.508zm115.335 276.349c-1.426 3.17-3.998 5.588-7.24 6.809-3.145 1.184-6.542 1.076-9.564-.302-14.905-6.796-36.883-19.491-56.942-41.377-2.739-2.989-2.781-7.585-.096-10.691l10.531-12.186c12.073 9.317 26.66 16.876 42.668 22.047 11.375 3.674 22.747 5.916 33.659 6.779zm83.612-17.847c-9.526 10.662-21.065 19.44-29.068 24.926-1.215.833-2.414.673-3.02.503-.613-.172-1.734-.665-2.349-2.031l-15.545-34.545c14.148-1.289 26.799-5.226 36.698-11.693l12.638 11.633c3.225 2.969 3.515 7.996.646 11.207zm-20.176-37.517c-17.003 12.559-48.271 14.415-79.164 4.438-15.783-5.098-29.933-12.724-41.113-22.135v-44.109c26.324 27.589 63.403 44.703 104.228 44.703 5.441 0 10.797-.37 16.049-1.074zm-16.049-33.103c-67.762 0-123.936-53.029-127.885-120.727-.247-4.23-3.749-7.534-7.986-7.534h-8.421c-13.27 0-24.065-10.796-24.065-24.065s10.795-24.065 24.065-24.065h49.5c-.894 2.513-1.385 5.216-1.385 8.033v16.032c0 26.512 21.569 48.082 48.081 48.082 30.932 0 56.098-25.166 56.098-56.098v-.016h16.065v.016c0 13.141 4.553 25.23 12.149 34.802-2.047-.06-4.116.662-5.723 2.178-2.662 2.512-6.505 3.953-10.542 3.953s-7.88-1.441-10.543-3.953c-3.214-3.032-8.277-2.885-11.309.329s-2.884 8.277.33 11.309c5.684 5.362 13.327 8.315 21.522 8.315 8.196 0 15.839-2.953 21.522-8.315 1.663-1.569 2.497-3.683 2.502-5.802 9.777 8.276 22.406 13.282 36.189 13.282 8.765 0 16.982-2.369 24.065-6.482v6.499c0 57.471-46.757 104.227-104.229 104.227zm-62.728-176.391c-.894 2.513-1.385 5.216-1.385 8.033 0 13.251 10.781 24.032 24.033 24.032 8.551 0 16.525-4.602 20.812-12.009 2.213-3.824.907-8.718-2.918-10.931-3.823-2.213-8.718-.907-10.931 2.917-1.436 2.481-4.104 4.022-6.963 4.022-4.429 0-8.033-3.604-8.033-8.032 0-4.43 3.604-8.033 8.033-8.033h24.049c4.429 0 8.032 3.603 8.032 8.033v8.016c0 22.11-17.988 40.098-40.098 40.098-17.689 0-32.081-14.392-32.081-32.082v-16.032c0-4.43 3.603-8.033 8.032-8.033h9.418zm134.875 32.065c8.552 0 16.526-4.602 20.812-12.009 2.212-3.825.906-8.718-2.919-10.931-3.823-2.212-8.717-.906-10.931 2.919-1.435 2.48-4.103 4.021-6.962 4.021-4.429 0-8.032-3.604-8.032-8.032 0-4.43 3.603-8.033 8.032-8.033h32.065c4.429 0 8.032 3.603 8.032 8.033v16.032c0 17.69-14.392 32.082-32.082 32.082-22.11 0-40.097-17.988-40.097-40.098v-8.016c0-4.43 3.603-8.033 8.032-8.033h1.402c-.894 2.513-1.385 5.216-1.385 8.033.001 13.251 10.781 24.032 24.033 24.032zm32.082-67.844c-10.785-4.51-29.589-10.565-53.497-10.949-4.448-.067-8.057 3.453-8.127 7.87-.071 4.418 3.453 8.057 7.871 8.128 27.543.441 47.665 9.476 53.754 12.561v2.17c-.005 0-.011 0-.016 0h-56.114c-10.447 0-19.354 6.703-22.658 16.033h-18.814c-3.304-9.33-12.211-16.033-22.658-16.033h-96.212v-39.368c0-10.25 4.862-19.9 13.005-25.816 15.981-11.609 44.241-25.655 88.302-27 17.716 10.875 36.421 19.164 55.443 24.438 21.819 6.05 42.338 7.602 59.722 4.727v43.239z"/><path d="m268.158 177.695c-37.895.607-59.306 15.542-60.199 16.177-3.6 2.562-4.441 7.557-1.879 11.157 1.561 2.193 4.024 3.362 6.525 3.362 1.604 0 3.225-.481 4.632-1.483.178-.127 18.2-12.687 51.179-13.215 4.417-.071 7.941-3.71 7.871-8.127-.072-4.418-3.67-7.936-8.129-7.871z"/><path d="m316.07 315.815c-7.518-5.982-17.223-9.276-27.326-9.276s-19.808 3.294-27.326 9.276c-5.392 4.29-7.414 11.248-5.15 17.727 2.236 6.403 8.077 10.541 14.88 10.541h35.192c6.803 0 12.644-4.138 14.88-10.541 2.263-6.479.241-13.437-5.15-17.727zm-44.363 12.264c4.655-3.576 10.687-5.54 17.036-5.54 6.317 0 12.32 1.945 17.029 5.544z"/><path d="m296.76 351.38h-16.033c-4.418 0-8 3.582-8 8s3.582 8 8 8h16.033c4.418 0 8-3.582 8-8s-3.581-8-8-8z"/></g></g></svg>