<svg fill="#000000" xmlns="http://www.w3.org/2000/svg" viewBox="0 0 50 50" width="50px" height="50px"><path d="M 8.25 4 C 5.903 4 4 5.903 4 8.25 L 4 41.75 C 4 44.097 5.903 46 8.25 46 L 41.75 46 C 44.097 46 46 44.097 46 41.75 L 46 8.25 C 46 5.903 44.097 4 41.75 4 L 8.25 4 z M 42 6 C 42.289 6.099 42.80925 6.3205 43.28125 6.8125 C 43.96925 7.5275 44.11725 8.35625 44.15625 8.65625 C 40.57725 12.24425 36.998922 15.831922 33.419922 19.419922 C 34.419922 23.219922 39.019531 20.119531 39.019531 22.019531 C 39.019531 26.519531 33.019531 24.720313 32.519531 28.820312 C 32.219531 31.020312 32.219922 33.119922 29.919922 35.419922 C 26.119922 39.219922 20.410547 39.700391 15.310547 34.900391 C 15.300547 34.890391 15.289297 34.879375 15.279297 34.859375 C 10.619297 29.789375 11.130625 24.160391 14.890625 20.400391 C 17.190625 18.100391 19.290234 18.100781 21.490234 17.800781 C 25.590234 17.300781 23.789062 11.300781 28.289062 11.300781 C 30.189062 11.300781 27.090625 15.900391 30.890625 16.900391 L 31.009766 17.019531 L 42 6 z M 25.160156 20.580078 L 23.679688 22.060547 L 28.060547 26.449219 L 29.550781 24.960938 L 25.160156 20.580078 z M 20.970703 24.660156 L 19.480469 26.150391 L 23.869141 30.529297 L 25.349609 29.050781 L 20.970703 24.660156 z"/></svg>