<svg height="476pt" viewBox="0 -10 476.64 476" width="476pt" xmlns="http://www.w3.org/2000/svg"><path d="m399.351562 419.351562v-36.980468h77.289063v73.949218h-77.289063zm0 0" fill="#00acea"/><path d="m438 74.269531h-38.648438v-73.949219h77.289063v73.949219zm0 0" fill="#00acea"/><path d="m438 382.238281v.132813h-38.648438v36.980468h-322.0625v-36.980468h-38.648437v-308.101563h38.648437v-36.980469h322.0625v36.980469h38.648438zm-205.828125-41.628906 52.199219-158.339844-158.339844 52.199219 35.328125 35.339844-39.160156 39.460937 35.171875 35.171875 39.457031-39.160156zm0 0" fill="#00efd1"/><path d="m284.371094 182.269531-52.199219 158.339844-35.34375-35.328125-39.457031 39.160156-35.171875-35.171875 39.160156-39.460937-35.328125-35.339844zm0 0" fill="#00acea"/><path d="m77.289062 419.351562v36.96875h-77.289062v-73.949218h77.289062zm0 0" fill="#00acea"/><path d="m77.289062 37.289062v36.980469h-77.289062v-73.949219h77.289062zm0 0" fill="#00acea"/><g fill="#f4b844"><path d="m310.011719 164.628906c-3.238281 0-6.15625-1.949218-7.394531-4.9375-1.238282-2.988281-.550782-6.429687 1.734374-8.71875l19.042969-19.039062c3.121094-3.125 8.1875-3.125 11.3125 0s3.125 8.1875 0 11.3125l-19.039062 19.039062c-1.5 1.503906-3.535157 2.347656-5.65625 2.34375zm0 0"/><path d="m329.050781 268.179688c-2.121093.003906-4.160156-.839844-5.65625-2.34375l-19.042969-19.039063c-3.121093-3.125-3.121093-8.191406 0-11.3125 3.125-3.125 8.191407-3.125 11.316407 0l19.039062 19.039063c2.289063 2.289062 2.972657 5.730468 1.734375 8.71875-1.238281 2.988281-4.15625 4.9375-7.390625 4.9375zm0 0"/><path d="m225.5 164.628906c-2.121094.003906-4.160156-.839844-5.65625-2.34375l-19.042969-19.039062c-3.125-3.125-3.121093-8.191406.003907-11.316406 3.125-3.121094 8.191406-3.121094 11.316406.003906l19.039062 19.039062c2.289063 2.289063 2.972656 5.730469 1.734375 8.71875-1.238281 2.988282-4.15625 4.9375-7.390625 4.9375zm0 0"/><path d="m267.761719 147.121094c-4.421875 0-8-3.582032-8-8v-26.921875c0-4.417969 3.578125-8 8-8 4.417969 0 8 3.582031 8 8v26.921875c0 4.417968-3.582031 8-8 8zm0 0"/><path d="m354.441406 206.878906h-26.921875c-4.417969 0-8-3.582031-8-8 0-4.417968 3.582031-8 8-8h26.921875c4.417969 0 8 3.582032 8 8 0 4.417969-3.582031 8-8 8zm0 0"/></g></svg>